<?xml version="1.0" standalone="no"?>
<!DOCTYPE svg PUBLIC "-//W3C//DTD SVG 20010904//EN"
 "http://www.w3.org/TR/2001/REC-SVG-20010904/DTD/svg10.dtd">
<svg version="1.0" xmlns="http://www.w3.org/2000/svg"
 width="400.000000pt" height="400.000000pt" viewBox="0 0 400.000000 400.000000"
 preserveAspectRatio="xMidYMid meet">
<metadata>
Created by potrace 1.14, written by Peter Selinger 2001-2017
</metadata>
<g transform="translate(0.000000,400.000000) scale(0.100000,-0.100000)"
fill="#000000" stroke="none">
<path d="M1728 3974 c-465 -68 -900 -300 -1208 -646 -254 -286 -419 -633 -487
-1028 -23 -133 -23 -469 1 -605 63 -370 199 -675 423 -952 93 -115 291 -306
310 -299 8 3 12 2 8 -3 -12 -20 228 -175 375 -244 253 -118 595 -197 855 -197
173 0 450 48 631 111 666 228 1158 771 1305 1439 65 299 63 671 -6 941 -82
321 -266 652 -489 883 -84 87 -247 228 -255 220 -3 -3 3 -12 14 -19 11 -8 25
-18 30 -22 82 -66 104 -87 98 -96 -3 -5 -2 -7 4 -4 5 3 25 -10 44 -30 19 -21
28 -34 21 -29 -7 4 -15 1 -18 -8 -3 -9 -11 -13 -17 -9 -6 3 -7 1 -3 -5 4 -7
-9 -25 -31 -44 -20 -18 -79 -75 -131 -126 -52 -51 -103 -97 -113 -103 -10 -5
-19 -14 -19 -20 0 -12 -58 -69 -69 -69 -4 0 -19 -13 -33 -29 -15 -16 -40 -37
-57 -47 -17 -10 -31 -27 -31 -37 0 -10 -5 -15 -10 -12 -6 4 -33 -16 -60 -43
-27 -27 -56 -52 -65 -55 -8 -4 -15 -12 -15 -19 -1 -14 -82 -78 -100 -78 -5 0
-10 -4 -10 -10 0 -5 -7 -10 -15 -10 -8 0 -26 -18 -41 -39 -14 -21 -34 -41 -46
-44 -11 -3 -17 -10 -13 -16 3 -6 1 -11 -5 -11 -6 0 -9 -4 -6 -9 3 -5 -1 -11
-9 -15 -8 -3 -15 -2 -15 3 0 5 -8 12 -17 15 -36 13 -68 36 -65 47 2 7 -4 9
-13 5 -9 -3 -13 -2 -10 3 3 6 -3 15 -12 21 -16 10 -15 11 5 6 13 -2 22 -2 19
0 -7 7 47 108 73 136 11 12 18 28 15 36 -4 11 10 47 25 62 3 3 15 26 28 51 12
26 29 52 37 59 8 7 15 20 15 30 0 10 6 23 14 29 8 6 24 33 36 59 30 65 74 147
114 212 19 31 38 68 41 83 4 15 11 27 15 27 4 0 13 14 20 30 7 17 18 34 24 38
15 10 36 48 36 67 0 9 7 18 15 21 8 4 15 12 15 20 0 7 8 29 17 49 13 26 22 35
35 32 10 -3 21 -1 24 4 3 5 -1 9 -8 9 -9 0 -9 3 2 10 20 13 33 13 25 -1 -4 -6
-1 -10 6 -8 27 3 50 -1 45 -9 -6 -10 3 -22 29 -42 20 -15 20 -14 1 8 -22 26
-15 28 19 6 14 -9 22 -21 18 -27 -3 -6 -1 -7 5 -3 6 4 24 -1 39 -10 l28 -16
-24 21 c-35 31 -185 123 -277 169 -178 89 -412 160 -621 187 -140 18 -403 18
-535 -1z m647 -1403 c28 -16 66 -46 85 -67 19 -20 29 -34 22 -30 -7 4 -22 4
-33 1 -16 -5 -19 -12 -15 -31 5 -18 2 -24 -9 -24 -9 0 -18 -7 -21 -15 -4 -8
-10 -15 -15 -15 -10 0 -59 -45 -59 -54 0 -3 -38 -43 -85 -87 -46 -45 -82 -86
-79 -91 4 -6 -12 2 -35 17 -42 28 -52 38 -27 29 9 -3 20 5 28 20 75 144 141
281 142 299 1 14 7 22 19 21 9 -1 18 2 18 7 1 5 2 15 3 22 1 6 -3 15 -9 19
-29 21 27 4 70 -21z m-590 -508 c9 -13 24 -17 53 -14 33 2 43 -2 52 -19 13
-25 5 -57 -18 -69 -9 -5 -41 -6 -69 -4 -51 5 -53 7 -55 37 l-1 31 -4 -31 c-4
-27 -9 -32 -36 -36 -47 -5 -67 1 -67 22 0 11 8 24 18 30 14 9 12 10 -13 8 -25
-3 -31 -8 -33 -31 -3 -23 -8 -27 -30 -25 -15 1 -33 -1 -39 -5 -6 -4 -23 -3
-36 2 -16 6 -38 6 -56 1 -24 -7 -35 -5 -53 10 -22 18 -22 19 -3 20 15 0 17 2
7 9 -8 5 -12 17 -10 27 2 14 13 20 41 22 23 2 37 -1 37 -9 0 -8 4 -8 13 -1 7
6 65 11 132 11 95 1 122 4 130 16 13 20 25 19 40 -2z m253 -25 c18 -18 14 -56
-7 -68 -29 -15 -39 -13 -56 14 -13 19 -14 29 -5 45 12 23 49 28 68 9z m-618
-160 c0 -5 -4 -8 -10 -8 -5 0 -10 10 -10 23 0 18 2 19 10 7 5 -8 10 -18 10
-22z m-1 -30 c-1 -1 3 -13 10 -25 7 -15 8 -23 1 -23 -5 0 -10 3 -10 8 0 4 -3
18 -7 32 -3 14 -3 22 1 18 4 -3 7 -8 5 -10z m491 -28 c14 -11 20 -20 13 -20
-9 0 -54 -62 -58 -80 -5 -24 -18 -50 -25 -50 -5 0 -12 -15 -15 -32 -4 -18 -13
-40 -19 -48 -21 -26 -39 -79 -33 -101 3 -12 0 -22 -8 -25 -7 -3 -16 -16 -19
-30 -4 -13 -12 -24 -19 -24 -18 0 -110 55 -131 79 -19 21 -19 22 3 37 12 9 20
22 17 30 -3 8 -1 14 5 14 16 0 59 47 59 65 0 8 6 15 14 15 8 0 31 23 52 50 21
28 42 50 47 50 12 0 77 68 77 80 0 15 12 12 40 -10z m-435 -100 c-3 -5 -1 -11
5 -15 12 -8 13 -25 1 -25 -5 0 -11 8 -14 18 -2 9 -8 26 -13 37 -7 18 -6 18 9
6 9 -7 15 -17 12 -21z m35 -59 c0 -5 18 -28 39 -52 22 -23 37 -47 34 -53 -4
-6 -11 -2 -17 8 -6 10 -26 34 -43 54 -34 37 -40 52 -23 52 6 0 10 -4 10 -9z
m53 -204 c-3 -6 -1 -7 5 -3 6 4 34 -10 62 -30 53 -38 61 -47 33 -37 -10 3 -15
2 -11 -2 5 -5 -3 -22 -16 -39 -13 -17 -26 -41 -30 -53 -4 -13 -13 -24 -19 -24
-7 -1 -22 -3 -33 -4 -38 -4 -45 -14 -24 -35 11 -11 20 -26 20 -34 0 -16 -24
-38 -32 -30 -4 3 -9 -8 -13 -25 -9 -42 -34 -91 -46 -91 -6 0 -8 -4 -5 -9 3 -5
-3 -20 -14 -34 -11 -13 -24 -36 -29 -50 -7 -18 -19 -27 -38 -29 -22 -2 -28 -8
-28 -28 0 -18 -11 -33 -42 -54 -42 -28 -60 -62 -26 -49 11 4 14 3 9 -5 -4 -7
-14 -12 -22 -12 -8 0 -12 -5 -9 -11 4 -6 13 -8 21 -5 9 4 14 -2 14 -15 0 -11
-7 -22 -15 -25 -8 -4 -15 -12 -15 -18 0 -7 -13 -25 -30 -41 -16 -16 -30 -23
-30 -17 0 15 -37 16 -46 1 -4 -7 1 -16 10 -21 12 -7 14 -13 6 -29 -15 -27 -50
-25 -51 4 0 12 -3 16 -6 10 -2 -7 -21 -13 -41 -13 -30 -1 -34 -3 -19 -11 21
-12 22 -29 2 -29 -11 0 -14 -7 -9 -25 9 -35 -9 -31 -23 5 -10 26 -35 44 -32
23 3 -20 -2 -23 -16 -9 -8 8 -15 24 -15 36 0 18 3 19 20 10 15 -8 26 -7 43 2
21 12 20 13 -18 16 -22 2 -43 8 -46 14 -4 6 -10 2 -13 -10 -4 -12 -15 -24 -25
-27 -11 -3 -22 -16 -26 -28 -6 -19 -8 -19 -12 -5 -5 19 -23 25 -23 8 0 -5 -9
-10 -20 -10 -11 0 -20 5 -20 10 0 6 -22 10 -50 10 -27 0 -50 -3 -50 -6 0 -3
10 -14 23 -25 12 -10 17 -18 11 -19 -12 0 -32 22 -53 59 -12 21 -11 26 3 36 9
7 16 15 16 19 0 12 40 46 54 46 8 0 17 -6 19 -12 3 -8 6 -6 6 5 1 9 7 17 14
17 8 0 19 12 26 27 10 21 14 24 21 13 5 -9 4 -20 -3 -29 -10 -12 -7 -13 18 -7
43 11 48 20 40 63 l-7 38 -14 -25 c-13 -24 -13 -24 -14 -4 0 39 53 41 65 3 4
-12 16 -19 31 -19 27 0 31 12 10 29 -16 14 -15 58 1 86 7 11 13 16 13 11 0
-17 30 17 30 35 0 11 3 18 8 18 32 -5 45 16 15 24 -14 4 -13 5 4 6 12 0 26 7
30 14 4 6 17 17 28 23 11 7 19 19 19 28 -1 9 4 16 11 16 8 0 16 9 20 19 9 28
111 131 129 131 9 0 18 11 22 25 3 14 10 25 14 25 5 0 15 6 22 13 37 36 88 68
88 56 0 -8 9 5 21 28 12 24 24 41 28 38 13 -7 40 34 36 55 -2 11 0 18 5 15 5
-3 11 -1 14 4 4 5 2 12 -4 16 -5 3 -10 11 -10 17 0 6 9 3 20 -7 11 -10 17 -22
13 -28z m-613 -616 c0 -12 -20 -25 -27 -18 -7 7 6 27 18 27 5 0 9 -4 9 -9z
m185 -291 c-3 -4 -14 -10 -25 -13 -22 -6 -29 18 -7 26 16 5 38 -3 32 -13z
m-434 -7 c13 -16 12 -17 -3 -4 -10 7 -18 15 -18 17 0 8 8 3 21 -13z m-16 -13
c10 -11 16 -20 13 -20 -3 0 -13 9 -23 20 -10 11 -16 20 -13 20 3 0 13 -9 23
-20z m195 -54 c0 -3 -4 -8 -10 -11 -5 -3 -10 -1 -10 4 0 6 5 11 10 11 6 0 10
-2 10 -4z m-30 -10 c0 -3 -4 -8 -10 -11 -5 -3 -10 -1 -10 4 0 6 5 11 10 11 6
0 10 -2 10 -4z m25 -37 c11 -16 1 -19 -13 -3 -7 8 -8 14 -3 14 5 0 13 -5 16
-11z"/>
<path d="M1832 2006 c1 -10 8 -17 13 -17 15 1 12 24 -3 29 -9 3 -13 -2 -10
-12z"/>
<path d="M1520 1988 c0 -4 4 -8 9 -8 6 0 12 4 15 8 3 5 -1 9 -9 9 -8 0 -15 -4
-15 -9z"/>
<path d="M1032 865 c-11 -13 -9 -15 8 -15 11 0 20 7 20 15 0 19 -11 19 -28 0z"/>
<path d="M1200 841 c0 -16 -4 -31 -9 -33 -5 -1 -2 -10 7 -18 14 -13 15 -12 9
3 -3 9 -2 19 4 22 5 4 7 10 4 15 -3 5 -1 11 5 15 15 9 12 25 -5 25 -10 0 -15
-10 -15 -29z"/>
<path d="M1135 810 c-3 -5 3 -10 15 -10 12 0 18 5 15 10 -3 6 -10 10 -15 10
-5 0 -12 -4 -15 -10z"/>
<path d="M1106 785 c4 -8 8 -15 10 -15 2 0 4 7 4 15 0 8 -4 15 -10 15 -5 0 -7
-7 -4 -15z"/>
<path d="M800 650 c0 -5 5 -10 11 -10 5 0 7 5 4 10 -3 6 -8 10 -11 10 -2 0 -4
-4 -4 -10z"/>
<path d="M748 643 c7 -3 16 -2 19 1 4 3 -2 6 -13 5 -11 0 -14 -3 -6 -6z"/>
</g>
</svg>
